<?xml version="1.0" encoding="UTF-8" standalone="no"?>
<!-- Created with Inkscape (http://www.inkscape.org/) -->
<svg
   xmlns:dc="http://purl.org/dc/elements/1.1/"
   xmlns:cc="http://creativecommons.org/ns#"
   xmlns:rdf="http://www.w3.org/1999/02/22-rdf-syntax-ns#"
   xmlns:svg="http://www.w3.org/2000/svg"
   xmlns="http://www.w3.org/2000/svg"
   xmlns:sodipodi="http://sodipodi.sourceforge.net/DTD/sodipodi-0.dtd"
   xmlns:inkscape="http://www.inkscape.org/namespaces/inkscape"
   width="500"
   height="500"
   id="svg2"
   sodipodi:version="0.32"
   inkscape:version="0.46"
   version="1.0"
   sodipodi:docname="Icon2.svg"
   inkscape:output_extension="org.inkscape.output.svg.inkscape"
   inkscape:export-filename="C:\Dokumente und Einstellungen\Ich\Desktop\Icon2.png"
   inkscape:export-xdpi="90"
   inkscape:export-ydpi="90">
  <defs
     id="defs4">
    <inkscape:perspective
       sodipodi:type="inkscape:persp3d"
       inkscape:vp_x="0 : 526.18109 : 1"
       inkscape:vp_y="6.1230318e-14 : 1000 : 0"
       inkscape:vp_z="744.09448 : 526.18109 : 1"
       inkscape:persp3d-origin="372.04724 : 350.78739 : 1"
       id="perspective10" />
  </defs>
  <sodipodi:namedview
     id="base"
     pagecolor="#ffffff"
     bordercolor="#666666"
     borderopacity="1.0"
     inkscape:pageopacity="0.0"
     inkscape:pageshadow="2"
     inkscape:zoom="0.7"
     inkscape:cx="219.12626"
     inkscape:cy="146.47961"
     inkscape:document-units="px"
     inkscape:current-layer="layer1"
     showgrid="true"
     inkscape:window-width="1024"
     inkscape:window-height="689"
     inkscape:window-x="-4"
     inkscape:window-y="-4">
    <inkscape:grid
       type="xygrid"
       id="grid2383"
       visible="true"
       enabled="true"
       spacingx="25px"
       spacingy="25px" />
  </sodipodi:namedview>
  <metadata
     id="metadata7">
    <rdf:RDF>
      <cc:Work
         rdf:about="">
        <dc:format>image/svg+xml</dc:format>
        <dc:type
           rdf:resource="http://purl.org/dc/dcmitype/StillImage" />
      </cc:Work>
    </rdf:RDF>
  </metadata>
  <g
     inkscape:label="Ebene 1"
     inkscape:groupmode="layer"
     id="layer1">
    <path
       style="opacity:0.5;fill:#000000;fill-opacity:1;fill-rule:evenodd;stroke:#000000;stroke-width:0;stroke-linecap:round;stroke-linejoin:round;stroke-miterlimit:4;stroke-dasharray:none;stroke-opacity:1"
       d="M 254,10 L 254,90 C 283.13547,90 310.46211,97.81236 334,111.4375 L 340.84375,99.5625 C 319.98691,89.594761 296.64284,84 272,84 L 272,10.65625 C 266.05642,10.21435 260.05594,10 254,10 z M 134,42.15625 C 97.592058,63.233159 67.233159,93.59206 46.15625,130 L 115.4375,170 C 117.81637,165.89042 120.37095,161.89879 123.09375,158.03125 L 64.15625,124 C 82.12415,92.96251 106.82506,66.336089 136.28125,46.09375 L 134,42.15625 z M 324.71875,127.53125 L 289.78125,188.03125 C 301.0644,194.54558 309.89914,203.67973 315.96875,214.21875 L 331.96875,204.96875 C 326.0191,195.80668 317.88461,187.86443 307.78125,182.03125 L 335.34375,134.3125 C 331.93358,131.91991 328.39551,129.65403 324.71875,127.53125 z M 224.21875,130.40625 C 198.21225,136.87331 174.41691,152.05083 156.75,174.9375 L 169.6875,184.9375 L 178.53125,190.03125 C 181.53447,186.25613 184.81828,182.72205 188.34375,179.4375 L 174.75,168.9375 C 188.24674,151.45309 205.3189,138.4521 224.21875,130.40625 z M 452.09375,141.8125 L 405.71875,167.15625 C 419.18699,191.7581 426.84375,219.99281 426.84375,250 C 426.84375,265.60946 424.75961,280.73809 420.875,295.125 L 471.90625,308.90625 C 472.82654,305.50188 473.63766,302.10245 474.40625,298.71875 L 438.875,289.125 C 442.75961,274.73809 444.84375,259.60946 444.84375,244 C 444.84375,213.99281 437.18699,185.7581 423.71875,161.15625 L 453.6875,144.78125 C 453.16285,143.79069 452.63394,142.80151 452.09375,141.8125 z M 272,147.5625 C 258.01931,147.5625 244.74134,150.57606 232.75,155.9375 C 239.59143,154.39438 246.69304,153.5625 254,153.5625 C 266.96264,153.5625 279.33095,156.13631 290.625,160.78125 L 294.90625,150.3125 C 287.56488,148.51877 279.88997,147.5625 272,147.5625 z M 131.53125,179.28125 C 118.65348,201.5862 112.5344,225.95811 112.5625,250 L 182.4375,250 C 182.43535,248.0009 182.52043,246.00307 182.6875,244 L 130.5625,244 C 130.53963,224.43061 134.60999,204.65152 143.0625,185.9375 L 131.53125,179.28125 z M 14,250 C 14,293.70638 25.715779,334.69143 46.15625,370 L 62.25,360.6875 C 43.892654,327.77864 33.049445,290.0976 32.0625,250 L 14,250 z M 325.5625,250 C 325.57557,262.16186 322.48309,274.49808 315.96875,285.78125 L 376.46875,320.71875 C 378.86439,316.56937 381.00571,312.33951 382.9375,308.0625 L 333.96875,279.78125 C 339.4123,270.35275 342.46315,260.18294 343.3125,250 L 325.5625,250 z M 192.03125,285.78125 L 131.59375,320.6875 C 131.9466,321.33167 132.29485,321.98625 132.65625,322.625 C 144.60856,342.65279 161.66008,359.98576 183.28125,372.46875 L 190.65625,359.6875 C 173.37874,347.5655 159.55033,332.11925 149.53125,314.71875 L 194.03125,289.03125 C 193.3365,287.96138 192.6659,286.88323 192.03125,285.78125 z M 289.78125,311.96875 C 288.36073,312.78685 286.90591,313.56444 285.4375,314.28125 C 287.11176,313.95987 288.79109,313.56418 290.4375,313.125 L 289.78125,311.96875 z M 272,319.21875 C 266.14472,320.74213 260.09216,321.55595 254,321.5625 L 254,391.4375 C 272.42393,391.41596 290.65655,387.78662 307.625,380.84375 C 296.03081,383.86789 284.05884,385.4234 272,385.4375 L 272,319.21875 z M 392.5625,330 C 378.51012,354.27595 358.27595,374.51012 334,388.5625 L 374,457.84375 C 379.37046,454.73474 384.62191,451.40881 389.71875,447.90625 L 352,382.5625 C 372.16637,370.88899 389.54502,354.9474 402.90625,335.96875 L 392.5625,330 z M 174,388.5625 L 134,457.84375 C 169.30857,478.28422 210.29362,490 254,490 L 254,483.34375 C 217.04807,480.59641 182.41623,469.452 152,451.84375 L 185.15625,394.4375 C 181.35384,392.62028 177.6295,390.66347 174,388.5625 z"
       id="path2385" />
    <path
       style="opacity:1;fill:#000080;fill-opacity:1;fill-rule:evenodd;stroke:#000000;stroke-width:0;stroke-linecap:round;stroke-linejoin:round;stroke-miterlimit:4;stroke-dasharray:none;stroke-opacity:1"
       d="M 268,6 L 268,86 C 297.13547,86 324.46211,93.812356 348,107.4375 L 388,38.15625 C 352.69143,17.715778 311.70638,6 268,6 z M 148,38.15625 C 111.59206,59.233159 81.233159,89.592058 60.15625,126 L 129.4375,166 C 143.48988,141.72405 163.72405,121.48988 188,107.4375 L 148,38.15625 z M 267.625,122.84375 C 230.52914,122.70317 194.91805,139.6289 170.75,170.9375 L 191.6875,187.09375 C 209.3279,164.27439 236.94703,149.5625 268,149.5625 C 280.96264,149.5625 293.33095,152.13631 304.625,156.78125 L 314.65625,132.34375 C 299.20748,126.00262 283.2877,122.90311 267.625,122.84375 z M 338.71875,123.53125 L 303.78125,184.03125 C 315.0644,190.54558 323.89914,199.67973 329.96875,210.21875 L 390.46875,175.28125 C 378.47214,154.44631 361.02371,136.40902 338.71875,123.53125 z M 466.09375,137.8125 L 419.71875,163.15625 C 433.18699,187.7581 440.84375,215.99281 440.84375,246 C 440.84375,261.60946 438.75961,276.73809 434.875,291.125 L 485.90625,304.90625 C 501.71897,246.41124 495.14,190.99165 466.09375,137.8125 z M 145.53125,175.28125 C 132.65348,197.5862 126.5344,221.95811 126.5625,246 L 196.4375,246 C 196.42443,233.83813 199.51691,221.50191 206.03125,210.21875 L 145.53125,175.28125 z M 28,246 C 28,289.70638 39.715779,330.69143 60.15625,366 L 129.4375,326 C 115.81236,302.46211 108,275.13547 108,246 L 28,246 z M 339.5625,246 C 339.57557,258.16186 336.48309,270.49808 329.96875,281.78125 L 390.46875,316.71875 C 403.34651,294.41378 409.4656,270.04189 409.4375,246 L 339.5625,246 z M 206.03125,281.78125 L 145.53125,316.71875 C 157.52786,337.55369 174.97629,355.59097 197.28125,368.46875 L 232.21875,307.96875 C 220.93558,301.45441 212.10087,292.32027 206.03125,281.78125 z M 303.78125,307.96875 C 292.90819,314.23073 280.54734,317.54901 268,317.5625 L 268,387.4375 C 292.79046,387.40852 317.2351,380.83889 338.71875,368.46875 L 303.78125,307.96875 z M 406.5625,326 C 392.51012,350.27595 372.27595,370.51012 348,384.5625 L 388,453.84375 C 424.40794,432.76684 454.76684,402.40794 475.84375,366 L 406.5625,326 z M 188,384.5625 L 148,453.84375 C 183.30857,474.28422 224.29362,486 268,486 L 268,406 C 238.86453,406 211.53789,398.18764 188,384.5625 z"
       id="path2459" />
  </g>
</svg>
